HIERARCHY
ROOT Hips
{
	OFFSET 0.000000 0.000000 0.000000
	CHANNELS 6 Xposition Yposition Zposition Xrotation Yrotation Zrotation
	JOINT LeftUpLeg_virtual
	{
		OFFSET 0.000000 0.000000 0.000000
		CHANNELS 3 Xrotation Yrotation Zrotation
		JOINT LeftUpLeg
		{
			OFFSET 11.394100 -6.187798 -0.413800
			CHANNELS 3 Xrotation Yrotation Zrotation
			JOINT LeftLeg
			{
				OFFSET 0.430247 -32.302673 3.732800
				CHANNELS 3 Xrotation Yrotation Zrotation
				JOINT LeftFoot
				{
					OFFSET -0.430247 -48.264931 -6.423300
					CHANNELS 3 Xrotation Yrotation Zrotation
					JOINT LeftToeBase
					{
						OFFSET 4.230900 -16.068199 23.438400
						CHANNELS 3 Xrotation Yrotation Zrotation
						JOINT LeftToe_End
						{
							OFFSET 4.510700 0.695400 19.974600
							CHANNELS 3 Xrotation Yrotation Zrotation
							End Site
							{
								OFFSET 0 0 0
							}
						}
					}
				}
			}
		}
	}
	JOINT RightUpLeg_virtual
	{
		OFFSET 0.000000 0.000000 0.000000
		CHANNELS 3 Xrotation Yrotation Zrotation
		JOINT RightUpLeg
		{
			OFFSET -11.333700 -6.187798 -0.413800
			CHANNELS 3 Xrotation Yrotation Zrotation
			JOINT RightLeg
			{
				OFFSET -0.430392 -32.302628 3.733000
				CHANNELS 3 Xrotation Yrotation Zrotation
				JOINT RightFoot
				{
					OFFSET 0.430392 -48.264973 -6.423500
					CHANNELS 3 Xrotation Yrotation Zrotation
					JOINT RightToeBase
					{
						OFFSET -4.230900 -16.068199 23.438400
						CHANNELS 3 Xrotation Yrotation Zrotation
						JOINT RightToe_End
						{
							OFFSET -4.510700 0.695400 19.974600
							CHANNELS 3 Xrotation Yrotation Zrotation
							End Site
							{
								OFFSET 0 0 0
							}
						}
					}
				}
			}
		}
	}
	JOINT Spine_virtual
	{
		OFFSET 0.000000 0.000000 0.000000
		CHANNELS 3 Xrotation Yrotation Zrotation
		JOINT Spine
		{
			OFFSET -0.002400 12.777504 0.315300
			CHANNELS 3 Xrotation Yrotation Zrotation
			JOINT Spine1
			{
				OFFSET -0.002067 5.816869 0.032633
				CHANNELS 3 Xrotation Yrotation Zrotation
				JOINT Spine1_split
				{
					OFFSET -0.002067 5.816869 0.032633
					CHANNELS 3 Xrotation Yrotation Zrotation
					JOINT Spine2
					{
						OFFSET -0.002067 5.816869 0.032633
						CHANNELS 3 Xrotation Yrotation Zrotation
						JOINT Neck_virtual
						{
							OFFSET 0.000000 0.000000 0.000000
							CHANNELS 3 Xrotation Yrotation Zrotation
							JOINT Neck
							{
								OFFSET -0.003700 21.199493 -0.826900
								CHANNELS 3 Xrotation Yrotation Zrotation
								JOINT Head
								{
									OFFSET 0.000000 20.442200 4.834800
									CHANNELS 3 Xrotation Yrotation Zrotation
									JOINT HeadTop_End
									{
										OFFSET 0.000000 34.668396 4.968400
										CHANNELS 3 Xrotation Yrotation Zrotation
										End Site
										{
											OFFSET 0 0 0
										}
									}
								}
							}
						}
						JOINT LeftShoulder_virtual
						{
							OFFSET 0.000000 0.000000 0.000000
							CHANNELS 3 Xrotation Yrotation Zrotation
							JOINT LeftShoulder
							{
								OFFSET 3.288150 8.794197 -1.372250
								CHANNELS 3 Xrotation Yrotation Zrotation
								JOINT LeftShoulder_split
								{
									OFFSET 3.288150 8.794197 -1.372250
									CHANNELS 3 Xrotation Yrotation Zrotation
									JOINT LeftArm
									{
										OFFSET 11.953299 -2.279007 -0.146200
										CHANNELS 3 Xrotation Yrotation Zrotation
										JOINT LeftForeArm
										{
											OFFSET 18.448900 0.000000 0.000000
											CHANNELS 3 Xrotation Yrotation Zrotation
											JOINT LeftHand
											{
												OFFSET 29.527798 0.000000 0.000000
												CHANNELS 3 Xrotation Yrotation Zrotation
												End Site
												{
													OFFSET 0 0 0
												}
											}
										}
									}
								}
							}
						}
						JOINT RightShoulder_virtual
						{
							OFFSET 0.000000 0.000000 0.000000
							CHANNELS 3 Xrotation Yrotation Zrotation
							JOINT RightShoulder
							{
								OFFSET -3.249400 8.794197 -1.372250
								CHANNELS 3 Xrotation Yrotation Zrotation
								JOINT RightShoulder_split
								{
									OFFSET -3.249400 8.794197 -1.372250
									CHANNELS 3 Xrotation Yrotation Zrotation
									JOINT RightArm
									{
										OFFSET -11.953299 -2.279007 -0.146200
										CHANNELS 3 Xrotation Yrotation Zrotation
										JOINT RightForeArm
										{
											OFFSET -18.448900 0.000000 0.000000
											CHANNELS 3 Xrotation Yrotation Zrotation
											JOINT RightHand
											{
												OFFSET -29.527802 0.000000 0.000000
												CHANNELS 3 Xrotation Yrotation Zrotation
												End Site
												{
													OFFSET 0 0 0
												}
											}
										}
									}
								}
							}
						}
					}
				}
			}
		}
	}
}
MOTION
Frames: 7
Frame Time: 0.03333333
-101.354111 82.038597 -8.571079 0.000000 0.000000 0.000000 16.717680 -61.711927 16.398379 -61.759991 -15.238968 8.832441 45.403119 -1.645799 -1.698216 14.783127 3.118891 -17.977336 -1.025230 -0.756400 0.769135 0.000000 0.000000 0.000000 16.297489 -60.843714 16.703106 -55.890441 -1.123871 -12.407436 82.549646 6.927778 -7.774506 -3.841121 6.765124 26.481647 -11.824572 4.544289 -31.212537 0.000000 0.000000 0.000000 15.980991 -58.205848 13.926341 15.209002 3.490586 -6.509608 16.349936 3.985838 -5.138899 0.559189 -1.590050 0.998373 0.000000 0.000000 0.000000 16.547422 4.290613 -5.156660 -10.245625 14.678966 7.216055 -12.463109 15.461235 0.125312 0.000000 0.000000 0.000000 17.482062 3.574977 -4.860409 -0.656474 -9.436371 11.382112 -2.544121 -3.480206 -5.027044 -32.651183 17.537834 -21.770412 0.008983 -67.978578 -1.664655 0.000000 0.000000 0.000000 16.006634 3.941958 -4.739851 -1.785282 12.730859 16.844749 2.994981 3.517000 -0.308994 -43.749704 -1.836665 42.623382 -42.500975 71.021236 38.870275 0.000000 0.000000 0.000000 
-104.647606 81.321899 -8.356083 0.000000 0.000000 0.000000 11.804429 -62.347080 11.190859 -57.561009 -17.781977 11.157958 51.077937 -3.580666 -2.138733 10.307697 3.485328 -16.495392 1.522578 -0.621155 -0.184350 0.000000 0.000000 0.000000 11.684751 -62.109123 11.889764 -57.110651 0.524225 -13.915535 81.764277 5.969882 -7.124255 -2.168820 4.561429 22.615875 -5.548485 2.298956 -23.066054 0.000000 0.000000 0.000000 14.275810 -60.458123 11.465115 15.703187 3.231971 -6.508624 15.956251 3.092374 -5.630010 0.751207 -1.415066 0.845676 0.000000 0.000000 0.000000 16.184014 3.198898 -5.713063 -12.882595 16.623822 6.416278 -13.252088 18.262140 0.811454 0.000000 0.000000 0.000000 17.235752 2.610287 -5.421096 -0.849001 -10.196497 10.128396 -3.910197 -4.504155 -6.370531 -35.053630 17.243127 -20.296935 -0.179625 -68.854898 -0.914789 0.000000 0.000000 0.000000 15.716696 2.928097 -5.372668 -2.192196 12.678150 15.336613 3.316003 4.521904 0.296035 -42.640178 -2.799416 44.085442 -41.087242 71.814426 37.393578 0.000000 0.000000 0.000000 
-107.950661 81.497101 -8.125664 0.000000 0.000000 0.000000 7.452153 -61.803178 6.587184 -52.167998 -19.582222 13.044594 52.864732 -4.577465 -2.307070 3.518572 4.129895 -14.417510 3.930645 -0.484211 -1.149338 0.000000 0.000000 0.000000 7.573759 -61.933492 7.648426 -56.183866 2.939653 -14.784950 76.494895 4.007326 -6.483248 -2.573779 0.511022 17.391366 1.448296 0.319215 -11.642787 0.000000 0.000000 0.000000 11.882496 -61.980142 8.723818 15.852125 2.944782 -6.185076 15.431407 2.386355 -5.989780 0.861540 -0.928909 0.655076 0.000000 0.000000 0.000000 15.628108 2.382484 -6.150451 -15.061337 18.655495 5.738748 -12.699979 21.312050 1.247246 0.000000 0.000000 0.000000 16.748992 1.889854 -5.812023 -1.361856 -11.263236 7.446759 -4.694701 -4.870804 -7.277684 -35.817170 16.581486 -21.176628 0.512026 -70.840352 0.473338 0.000000 0.000000 0.000000 15.347145 2.164638 -5.791945 -2.504694 12.706308 13.570985 3.693823 5.232546 0.893819 -41.416857 -4.277829 44.534275 -41.118521 73.534834 37.485499 0.000000 0.000000 0.000000 
-110.946007 81.935333 -7.871815 0.000000 0.000000 0.000000 4.536469 -61.002038 3.413162 -46.984707 -20.266729 14.667876 52.094976 -5.397942 -2.510439 -3.284546 3.611262 -12.427655 2.803576 -0.422850 -1.298205 0.000000 0.000000 0.000000 4.139612 -61.246095 4.180527 -53.939602 5.145268 -15.483066 69.334685 2.233446 -6.617166 -3.743943 -2.920096 13.858166 6.093643 -0.640283 -0.971878 0.000000 0.000000 0.000000 9.340474 -62.728266 6.213045 15.588641 2.719427 -5.687345 14.778463 1.884557 -6.250025 0.687308 -0.799032 0.364765 0.000000 0.000000 0.000000 14.975844 1.868807 -6.436331 -16.551966 20.524669 5.056861 -10.893665 24.181749 1.378031 0.000000 0.000000 0.000000 16.055652 1.443439 -6.061475 -2.185432 -12.466037 3.650026 -4.908322 -4.332251 -7.036349 -34.173585 15.532933 -23.522579 1.765519 -72.717240 2.059524 0.000000 0.000000 0.000000 14.878826 1.671015 -6.006844 -2.680303 12.702117 11.794476 4.098541 5.483965 1.324638 -40.318771 -6.677864 44.147242 -46.579124 76.899037 43.122157 0.000000 0.000000 0.000000 
-113.608307 82.192123 -7.290520 0.000000 0.000000 0.000000 2.885149 -60.100843 1.621028 -43.869209 -19.510000 16.226970 51.375051 -6.284561 -2.976538 -8.052003 1.530439 -10.231806 -0.618567 -0.417639 -0.854765 0.000000 0.000000 0.000000 1.627454 -60.452720 1.840168 -51.370898 5.927559 -16.442478 63.538026 1.588063 -7.478541 -4.861464 -4.453369 14.046657 7.103368 -1.337978 5.553209 0.000000 0.000000 0.000000 6.862747 -62.434377 4.139443 14.986856 2.583554 -5.070169 14.060827 1.559865 -6.429969 0.349857 -1.202205 0.394552 0.000000 0.000000 0.000000 14.285844 1.603422 -6.600165 -17.478555 22.113065 4.379350 -8.245628 26.393193 1.273735 0.000000 0.000000 0.000000 15.311083 1.176029 -6.228079 -3.210825 -13.763801 -0.582177 -4.847750 -2.870740 -6.201448 -30.679355 13.699183 -26.351657 2.339876 -72.593914 2.742082 0.000000 0.000000 0.000000 14.342537 1.403077 -6.068390 -2.688909 12.632737 10.125270 4.399514 5.428945 1.363663 -39.918832 -9.839159 43.120429 -64.532044 80.896207 61.338288 0.000000 0.000000 0.000000 
-115.817886 81.823784 -6.761852 0.000000 0.000000 0.000000 1.739124 -59.505865 0.563476 -43.588464 -17.561769 17.967250 52.618780 -7.478017 -3.727488 -9.502442 -1.680880 -7.892325 -3.196894 -0.388769 -0.318195 0.000000 0.000000 0.000000 -0.414767 -59.829261 0.039111 -48.848096 4.925569 -17.513210 60.239618 2.276524 -8.727102 -7.085018 -3.881933 17.193198 6.176289 -2.219691 6.846868 0.000000 0.000000 0.000000 4.483498 -61.677025 2.416198 14.241974 2.619844 -4.352956 13.384865 1.337892 -6.568900 0.610566 -2.108750 0.458481 0.000000 0.000000 0.000000 13.685778 1.489638 -6.701168 -18.115017 23.287217 3.745199 -5.484945 27.808400 1.067696 0.000000 0.000000 0.000000 14.644364 0.981375 -6.368188 -4.335948 -14.881775 -4.748415 -4.603032 -1.239561 -4.911088 -26.198333 11.073358 -28.932753 1.728084 -69.806459 2.096824 0.000000 0.000000 0.000000 13.774038 1.295091 -6.049369 -2.603956 12.542617 8.666433 4.665831 5.418039 1.061862 -40.734538 -13.138140 41.606640 -100.113587 82.751321 97.178825 0.000000 0.000000 0.000000 
-117.514435 81.103119 -6.079746 0.000000 0.000000 0.000000 0.942437 -59.417974 -0.043109 -45.549118 -14.963430 19.904611 55.601568 -8.641037 -4.747253 -8.680855 -4.615067 -5.175056 -3.178312 -0.103472 -0.233054 0.000000 0.000000 0.000000 -2.250509 -59.314879 -1.486196 -46.612698 2.217733 -18.647760 60.028572 3.053360 -9.636278 -10.546190 -2.364822 20.457323 4.526546 -3.131027 4.157566 0.000000 0.000000 0.000000 2.717830 -60.477206 1.305472 13.492966 2.825214 -3.539964 12.835268 1.138712 -6.679883 0.821235 -2.735239 0.627980 0.000000 0.000000 0.000000 13.244792 1.374921 -6.762456 -18.757689 24.000595 3.211028 -3.141608 28.372770 0.928379 0.000000 0.000000 0.000000 14.144289 0.794901 -6.500175 -5.398332 -15.643356 -8.350609 -4.808768 -0.100221 -3.441947 -21.294834 7.775574 -30.941648 1.152188 -64.854531 1.268859 0.000000 0.000000 0.000000 13.265260 1.239736 -6.009597 -2.541664 12.442727 7.444632 4.605185 5.413891 0.668528 -42.594644 -15.719308 39.675066 -128.393035 81.899282 125.689196 0.000000 0.000000 0.000000 
